<svg viewBox="0 0 100 60" xmlns="http://www.w3.org/2000/svg">
    <rect width="100" height="60" fill="#001B69" />
    <g transform="scale(0.5)">
        <svg viewBox="0 0 100 60" width="100" height="60" xmlns="http://www.w3.org/2000/svg">
            <rect width="100" height="60" fill="#001B69" />
            <g stroke-linecap="square"  fill="none">
                <path stroke-width="12" stroke="#ffffff" d="M 0 0 l 100 60 m 0 -60 l -100 60" />
                <path stroke-width="4" stroke="#c9072a" d="M 0 1.5 l 50 30" />
                <path stroke-width="4" stroke="#c9072a" d="M 50 28.5 l 50 30" />
                <path stroke-width="4" stroke="#c9072a" d="M 0 61.5 l 50 -30" />
                <path stroke-width="4" stroke="#c9072a" d="M 50 28.5 l 50 -30" />
                <path stroke-width="15" stroke="#ffffff" d="M 50 0 v 60 m -50 -30 h 100" />
                <path stroke-width="9" stroke="#c9072a" d="M 50 0 v 60 m -50 -30 h 100" />
            </g>
        </svg>
    </g>
    <g transform="translate(25 45)">
        <g id="star">
            <g fill="#ffffff" stroke="none">
                <path id="star--triangle" d="M -4.5 8.5 l 4.5 -17 4.5 17 -4.5 -4.5 z"  />
                <use href="#star--triangle" transform="rotate(55)" />
                <use href="#star--triangle" transform="rotate(-55)" />
            </g>
        </g>
    </g>
    <g transform="translate(75 49)">
        <use transform="scale(0.5)" href="#star" />
    </g>
    <g transform="translate(75 10)">
        <use transform="scale(0.5)" href="#star" />
    </g>
    <g transform="translate(60 25)">
        <use transform="scale(0.5)" href="#star" />
    </g>
    <g transform="translate(87 22)">
        <use transform="scale(0.5)" href="#star" />
    </g>
    <g transform="translate(78 30)">
        <path fill="#ffffff" stroke="none" d="M -2 2.5 l 2 -5 2 5 -4.5 -3 5 0 z"  />
    </g>
</svg>